<?xml version="1.0" encoding="UTF-8"?>
<svg id="Capa_1" xmlns="http://www.w3.org/2000/svg" version="1.1" viewBox="54 103 392 101">
  <!-- Generator: Adobe Illustrator 30.7.0, SVG Export Plug-In . SVG Version: 2.1.4 Build 114)  -->
  <defs>
    <style>
      .st0 {
        fill: #fff;
      }
    </style>
  </defs>
  <polygon class="st0" points="222.4 132.8 222.4 175.2 229.4 175.2 229.4 157 243.8 157 243.8 150.4 229.4 150.4 229.4 139.5 247.6 139.5 247.6 132.8 222.4 132.8"/>
  <path class="st0" d="M249,160.3c0-8.8,6.1-15.5,15.4-15.5s15.6,7,14.9,17.1h-23.8c.2,4.5,3.8,8.1,9,8.1s6.1-1.3,7.5-4.2h6.9c-1.7,5.6-7,10-14.6,10s-15.3-6.6-15.3-15.5M255.7,157.2h16.5c-1-4.8-4.4-7-8.1-7s-7.6,2.4-8.5,7"/>
  <path class="st0" d="M286,145.3h6.6v4.1c1.9-3.1,5.2-4.7,9.1-4.7,6.9,0,11.4,4.9,11.4,12.5v18h-6.6v-16.9c0-4.8-2.4-7.6-6.2-7.6s-7.7,3.3-7.7,9.8v14.7h-6.6v-29.9h0Z"/>
  <path class="st0" d="M319.4,160.3c0-8.5,6.2-15.5,14.4-15.5s7.9,2.2,9.5,4.6v-4h6.6v29.9h-6.6v-4c-1.7,2.4-5.3,4.6-9.5,4.6-8.2,0-14.4-7-14.4-15.5M343.9,160.3c0-5.4-3.6-9.6-8.9-9.6s-8.9,4.2-8.9,9.6,3.6,9.6,8.9,9.6,8.9-4.2,8.9-9.6"/>
  <rect class="st0" x="358.8" y="130.4" width="6.6" height="44.8"/>
  <path class="st0" d="M372,160.3c0-8.6,6.6-15.5,15.6-15.5s13.6,4.9,15.2,11.5h-6.9c-1.2-3.3-4.1-5.6-8.2-5.6s-9,4-9,9.6,3.6,9.6,9,9.6,7-2.3,8.2-5.6h6.9c-1.5,6.6-7.3,11.5-15.2,11.5s-15.6-6.9-15.6-15.5"/>
  <path class="st0" d="M406.9,160.3c0-8.7,6.8-15.5,15.6-15.5s15.6,6.9,15.6,15.5-6.8,15.5-15.6,15.5-15.6-6.9-15.6-15.5M431.5,160.3c0-5.3-3.7-9.4-9-9.4s-9,4.1-9,9.4,3.7,9.4,9,9.4,9-4.1,9-9.4"/>
  <path class="st0" d="M82.1,120.8c-9.7,0-18.1-6.8-20.3-16.1h57.2c9.7,0,18.1,6.8,20.3,16.1h-57.2Z"/>
  <path class="st0" d="M204.4,120.8c9.7,0,18.1-6.8,20.3-16.1h-57.2c-9.7,0-18.1,6.8-20.3,16.1h57.2Z"/>
  <path class="st0" d="M110.7,146.9c-9.7,0-18.1-6.8-20.3-16.1h32.8c8.9,0,16.1,7.2,16.1,16.1,0,0-28.6,0-28.6,0Z"/>
  <path class="st0" d="M163.3,130.7c-8.9,0-16.1,7.2-16.1,16.1v28.8h16.1v-28.8h12.5c9.7,0,18.1-6.8,20.3-16.1h-32.8Z"/>
  <path class="st0" d="M129.8,176.5c-5.2,0-9.4-4.2-9.4-9.4s4.2-9.4,9.4-9.4,9.4,4.2,9.4,9.4-4.2,9.4-9.4,9.4"/>
  <g>
    <path class="st0" d="M223,200l1.2-1.5c1,.9,2.2,1.5,3.7,1.5s2.1-.7,2.1-1.5-.8-1.2-2.6-1.7c-2.3-.5-4-1.2-4-3.4s1.7-3.4,4.1-3.4,3.1.6,4.3,1.6l-1.1,1.5c-1-.9-2.1-1.3-3.2-1.3s-1.9.7-1.9,1.5.8,1.2,2.6,1.7c2.4.5,3.9,1.3,3.9,3.4s-1.6,3.5-4.3,3.5-3.6-.7-4.9-1.8h0Z"/>
    <path class="st0" d="M243,199.6h-5.5l-.9,2.1h-2.3l4.7-11.3h2.3l4.7,11.3h-2.3l-.9-2.1h0ZM242.2,197.8l-2-4.8-2,4.8h4Z"/>
    <path class="st0" d="M249,190.3h2.1l6,8v-8h2v11.3h-2l-6-8v8h-2.1v-11.3Z"/>
    <path class="st0" d="M265.9,192.2h-3.6v-1.9h9.3v1.9h-3.6v9.5h-2v-9.5Z"/>
    <path class="st0" d="M281.4,199.6h-5.5l-.9,2.1h-2.3l4.7-11.3h2.3l4.7,11.3h-2.3l-.9-2.1ZM280.6,197.8l-2-4.8-2,4.8h4Z"/>
    <path class="st0" d="M287.4,190.3h2.1l6,8v-8h2v11.3h-2l-6-8v8h-2.1v-11.3Z"/>
    <path class="st0" d="M301.4,190.3h4c3.8,0,6.4,2.3,6.4,5.7s-2.6,5.7-6.4,5.7h-4v-11.3ZM305.6,199.8c2.4,0,4.1-1.6,4.1-3.8s-1.7-3.8-4.1-3.8h-2.1v7.6h2.1Z"/>
    <path class="st0" d="M317.1,192.2v2.7h5.9v1.9h-5.9v3h6.5v1.9h-8.5v-11.3h8.5v1.9h-6.5Z"/>
    <path class="st0" d="M333.7,201.7l-2.7-3.8h-2.2v3.8h-2.1v-11.3h4.9c2.4,0,4.2,1.6,4.2,3.8s-1.1,3-2.7,3.6l2.8,4h-2.4,0ZM328.9,196h2.6c1.4,0,2.4-.7,2.4-1.9s-1-1.9-2.4-1.9h-2.6v3.7h0Z"/>
  </g>
</svg>